<svg xmlns="http://www.w3.org/2000/svg" xmlns:xlink="http://www.w3.org/1999/xlink" viewBox="0 0 66 65" fill="#fff" fill-rule="evenodd" stroke="#000" stroke-linecap="round" stroke-linejoin="round"><use xlink:href="#A" x=".5" y=".5"/><symbol id="A" overflow="visible"><g stroke="none" fill-rule="nonzero"><path d="M32 0c17.666 0 32 14.332 32 32S49.666 64 32 64 0 49.668 0 32 14.332 0 32 0z" fill="#000"/><path d="M53.77 41.7c-.223-1.755-1.705-2.965-3.6-2.94-2.842.037-5.226 1.507-6.806 2.483a14.85 14.85 0 0 1-1.607.877c.1-1.434.014-3.3-.728-5.375-.902-2.47-2.112-3.99-2.978-4.868 1-1.458 2.373-3.58 3.015-6.87.57-2.805.382-7.167-.89-9.612-.26-.494-.692-.853-1.236-1-.223-.06-.642-.185-1.47.05-1.248-2.568-1.68-2.854-2.012-3.076a2.52 2.52 0 0 0-2.273-.26c-1.027.37-1.903 1.36-2.73 3.113l-.334.753c-1.57.11-4.04.68-6.128 2.94-.26.285-.766.494-1.298.692h.014c-1.087.382-1.58 1.273-2.187 2.88-.842 2.25.024 4.46.877 5.893-1.16 1.037-2.705 2.694-3.52 4.633-1 2.397-1.124 4.744-1.087 6.017-.865.913-2.197 2.63-2.347 4.56-.2 2.694.78 4.523 1.213 5.19a3.44 3.44 0 0 0 .408.519c-.05.334-.06.692.014 1.063.16.865.705 1.57 1.532 2.012 1.63.865 3.904 1.236 5.66.357.63.668 1.78 1.3 3.852 1.3h.124c.53 0 7.277-.357 9.24-.842a4.48 4.48 0 0 0 1.878-.915c1.26-.395 4.744-1.58 8.033-3.707 2.323-1.507 3.125-1.83 4.855-2.25 1.68-.408 2.73-1.94 2.52-3.633zm-2.94 1.816c-1.978.47-2.978.902-5.425 2.497-3.818 2.47-7.994 3.62-7.994 3.62s-.345.52-1.347.753c-1.73.42-8.24.78-8.835.8-1.594.014-2.568-.408-2.842-1.063-.828-1.978 1.184-2.842 1.184-2.842s-.445-.27-.705-.52c-.235-.235-.482-.705-.57-.53-.308.753-.47 2.594-1.298 3.424-1.137 1.15-3.286.766-4.56.1-1.398-.742.1-2.483.1-2.483s-.753.445-1.36-.47c-.542-.842-1.05-2.273-.913-4.04.148-2.012 2.397-3.966 2.397-3.966s-.395-2.978.902-6.03c1.174-2.78 4.337-5.017 4.337-5.017s-2.657-2.94-1.67-5.584c.642-1.73.902-1.718 1.113-1.792.742-.285 1.458-.594 1.99-1.174 2.657-2.868 6.042-2.323 6.042-2.323s1.607-4.88 3.09-3.93c.457.297 2.1 3.952 2.1 3.952s1.755-1.027 1.952-.642c1.063 2.063 1.184 6.007.716 8.4-.8 3.952-2.768 6.078-3.558 7.414-.185.308 2.126 1.284 3.58 5.325 1.347 3.695.148 6.796.357 7.14l.05.086s1.544.124 4.646-1.792c1.655-1.027 3.62-2.174 5.857-2.197 2.162-.037 2.273 2.497.642 2.89z"/></g></symbol></svg>